<?xml version="1.0" standalone="no"?>
<!DOCTYPE svg PUBLIC "-//W3C//DTD SVG 20010904//EN"
 "http://www.w3.org/TR/2001/REC-SVG-20010904/DTD/svg10.dtd">
<svg version="1.0" xmlns="http://www.w3.org/2000/svg"
 width="512.000000pt" height="512.000000pt" viewBox="0 0 512.000000 512.000000"
 preserveAspectRatio="xMidYMid meet">
<metadata>
Created by potrace 1.14, written by Peter Selinger 2001-2017
</metadata>
<g transform="translate(0.000000,512.000000) scale(0.100000,-0.100000)"
fill="#000000" stroke="none">
<path d="M2022 4296 c-59 -15 -174 -61 -212 -86 -14 -9 -56 -38 -95 -63 -119
-79 -261 -123 -535 -166 -36 -6 -96 -13 -135 -17 -38 -3 -96 -12 -127 -18
l-57 -13 -38 39 c-74 77 -146 107 -194 82 -22 -11 -29 -22 -30 -47 -3 -54 0
-89 12 -162 l11 -70 -99 -100 c-54 -55 -113 -122 -132 -150 -30 -46 -32 -55
-28 -112 l5 -62 -117 -93 c-147 -118 -161 -132 -161 -161 0 -28 108 -211 151
-256 16 -17 39 -33 51 -36 84 -21 268 -24 528 -10 74 4 213 8 308 9 l172 2 11
-41 c6 -22 21 -78 34 -125 33 -117 76 -281 80 -302 10 -50 49 -181 71 -237 35
-90 74 -159 147 -259 l38 -53 -62 -67 c-196 -213 -202 -542 -11 -662 26 -16
55 -30 65 -30 16 0 18 -5 12 -38 -5 -31 -2 -41 17 -59 22 -21 30 -21 271 -19
l248 3 42 29 c57 41 69 66 63 139 -6 75 -7 81 -56 253 -22 78 -40 146 -40 151
0 4 35 35 78 68 42 33 98 81 123 107 43 42 184 266 238 379 23 48 37 55 71 37
18 -9 273 -82 330 -94 14 -3 66 -14 116 -25 125 -27 195 -36 291 -35 67 0 84
-3 87 -15 5 -18 15 -80 31 -201 3 -25 9 -72 14 -105 5 -33 8 -130 7 -215 -1
-137 -4 -163 -25 -222 -35 -95 -86 -160 -135 -170 -84 -18 -156 -74 -156 -122
0 -31 47 -52 145 -64 109 -13 565 -2 612 15 40 14 70 44 81 80 6 21 50 88 98
148 86 111 170 233 214 313 13 23 26 42 29 42 11 0 143 -280 138 -293 -3 -7
-37 -35 -77 -61 -108 -73 -118 -120 -29 -142 44 -11 266 -11 336 1 81 13 130
73 157 193 3 13 7 31 10 40 17 59 23 221 11 302 -27 183 -111 370 -247 551
l-59 78 40 139 c49 172 58 219 60 330 3 140 -40 306 -151 582 -111 274 -263
486 -445 622 -32 24 -60 45 -63 48 -19 19 -187 106 -265 138 -169 67 -267 90
-550 128 -27 4 -178 8 -335 9 -265 2 -290 3 -355 24 -85 28 -166 66 -220 104
-88 61 -114 76 -165 91 -63 19 -174 19 -248 2z"/>
</g>
</svg>
